<svg width="426" height="197" viewBox="0 0 426 197" version="1.1" xmlns="http://www.w3.org/2000/svg" xmlns:xlink="http://www.w3.org/1999/xlink">
<title>remember_the_list_logo_01</title>
<desc>Created using Figma</desc>
<g id="Canvas" transform="translate(4029 -1131)">
<g id="remember_the_list_logo_01">
<g id="Group 6">
<g id="Union">
<use xlink:href="#path0_fill" transform="translate(-4029 1131)" fill="#FFFFFF"/>
<mask id="mask0_outline_ins">
<use xlink:href="#path0_fill" fill="white" transform="translate(-4029 1131)"/>
</mask>
<g mask="url(#mask0_outline_ins)">
<use xlink:href="#path1_stroke_2x" transform="translate(-4029 1131)" fill="#145275"/>
</g>
</g>
<g id="Group 5">
<g id="Group 4">
<g id="Vector">
<use xlink:href="#path2_stroke" transform="translate(-3949.6 1198.75)" fill="#145275"/>
</g>
<g id="Rectangle">
<mask id="mask1_outline_ins">
<use xlink:href="#path3_fill" fill="white" transform="translate(-3973.63 1189.37)"/>
</mask>
<g mask="url(#mask1_outline_ins)">
<use xlink:href="#path4_stroke_2x" transform="translate(-3973.63 1189.37)" fill="#145275"/>
</g>
</g>
</g>
<g id="Group 4.1">
<g id="Vector">
<use xlink:href="#path2_stroke" transform="translate(-3949.6 1222.73)" fill="#145275"/>
</g>
<g id="Rectangle">
<mask id="mask2_outline_ins">
<use xlink:href="#path3_fill" fill="white" transform="translate(-3973.63 1213.34)"/>
</mask>
<g mask="url(#mask2_outline_ins)">
<use xlink:href="#path4_stroke_2x" transform="translate(-3973.63 1213.34)" fill="#145275"/>
</g>
</g>
</g>
<g id="Group 4.2">
<g id="Vector">
<use xlink:href="#path2_stroke" transform="translate(-3949.6 1246.7)" fill="#145275"/>
</g>
<g id="Rectangle">
<mask id="mask3_outline_ins">
<use xlink:href="#path3_fill" fill="white" transform="translate(-3973.63 1237.32)"/>
</mask>
<g mask="url(#mask3_outline_ins)">
<use xlink:href="#path4_stroke_2x" transform="translate(-3973.63 1237.32)" fill="#145275"/>
</g>
</g>
</g>
</g>
</g>
<g id="Remember the list">
<use xlink:href="#path5_fill" transform="translate(-3822 1165)" fill="#FFFFFF"/>
<use xlink:href="#path6_fill" transform="translate(-3822 1165)" fill="#FFFFFF"/>
<use xlink:href="#path7_fill" transform="translate(-3822 1165)" fill="#FFFFFF"/>
<use xlink:href="#path8_fill" transform="translate(-3822 1165)" fill="#FFFFFF"/>
<use xlink:href="#path9_fill" transform="translate(-3822 1165)" fill="#FFFFFF"/>
<use xlink:href="#path10_fill" transform="translate(-3822 1165)" fill="#FFFFFF"/>
<use xlink:href="#path11_fill" transform="translate(-3822 1165)" fill="#FFFFFF"/>
<use xlink:href="#path12_fill" transform="translate(-3822 1165)" fill="#FFFFFF"/>
<use xlink:href="#path13_fill" transform="translate(-3822 1165)" fill="#FFFFFF"/>
<use xlink:href="#path14_fill" transform="translate(-3822 1165)" fill="#FFFFFF"/>
<use xlink:href="#path15_fill" transform="translate(-3822 1165)" fill="#FFFFFF"/>
<use xlink:href="#path16_fill" transform="translate(-3822 1165)" fill="#FFFFFF"/>
<use xlink:href="#path17_fill" transform="translate(-3822 1165)" fill="#FFFFFF"/>
<use xlink:href="#path18_fill" transform="translate(-3822 1165)" fill="#FFFFFF"/>
<use xlink:href="#path19_fill" transform="translate(-3822 1165)" fill="#FFFFFF"/>
</g>
</g>
</g>
<defs>
<path id="path0_fill" fill-rule="evenodd" d="M 8.47795 92.7835C 5.40959 89.2658 3.07585 85.0195 1.78215 80.2199C -2.78084 63.291 7.32512 45.89 24.3549 41.3538C 25.914 40.9385 27.4772 40.6454 29.0339 40.4687C 30.465 27.883 39.4499 16.8499 52.5016 13.3734C 61.4233 10.9969 70.4753 12.6229 77.7284 17.144C 81.7126 9.50421 88.7905 3.49188 97.811 1.08917C 114.234 -3.28522 131.098 5.9018 136.371 21.7447C 152.692 18.5765 168.924 28.4758 173.293 44.6845C 175.385 52.4489 174.393 60.3127 171.061 66.989C 178.122 71.0516 183.626 77.7883 185.904 86.2407C 190.24 102.328 181.33 118.841 165.82 124.336C 164.038 136.503 155.187 147.047 142.482 150.431C 137.094 151.866 131.659 151.842 126.601 150.601C 122.706 158.637 115.444 165.003 106.097 167.492C 95.2077 170.393 84.1244 167.331 76.3544 160.32C 73.7243 161.958 70.8073 163.24 67.6528 164.08C 52.1447 168.211 36.2428 160.248 30.0793 146.008C 16.7111 145.238 4.7509 136.093 1.09563 122.532C -1.84505 111.622 1.30681 100.516 8.47795 92.7835ZM 152.548 171.166C 150.1 162.026 140.709 156.602 131.574 159.051C 122.438 161.5 117.016 170.895 119.464 180.035C 121.912 189.175 131.302 194.599 140.438 192.15C 149.574 189.701 154.996 180.306 152.548 171.166ZM 164.356 177.639C 169.607 176.232 175.004 179.349 176.411 184.602C 177.818 189.855 174.702 195.254 169.451 196.662C 164.201 198.07 158.803 194.952 157.397 189.699C 155.99 184.446 159.106 179.047 164.356 177.639Z"/>
<path id="path1_stroke_2x" d="M 8.47795 92.7835L 12.144 96.1835L 15.2022 92.886L 12.2459 89.4968L 8.47795 92.7835ZM 1.78215 80.2199L -3.04556 81.5212L -3.04555 81.5212L 1.78215 80.2199ZM 24.3549 41.3538L 23.068 36.5223L 23.068 36.5223L 24.3549 41.3538ZM 29.0339 40.4687L 29.598 45.4368L 33.5522 44.9878L 34.0018 41.0336L 29.0339 40.4687ZM 52.5016 13.3734L 53.7886 18.2049L 53.7886 18.2049L 52.5016 13.3734ZM 77.7284 17.144L 75.0835 21.3872L 79.6653 24.2431L 82.1618 19.456L 77.7284 17.144ZM 97.811 1.08917L 99.0979 5.92072L 99.0979 5.92071L 97.811 1.08917ZM 136.371 21.7447L 131.627 23.3239L 133.014 27.4898L 137.324 26.6531L 136.371 21.7447ZM 173.293 44.6845L 178.12 43.3833L 178.12 43.3833L 173.293 44.6845ZM 171.061 66.989L 166.587 64.7564L 164.483 68.9727L 168.568 71.3227L 171.061 66.989ZM 185.904 86.2407L 190.732 84.9394L 190.732 84.9394L 185.904 86.2407ZM 165.82 124.336L 164.15 119.623L 161.309 120.63L 160.873 123.612L 165.82 124.336ZM 142.482 150.431L 141.195 145.599L 141.195 145.599L 142.482 150.431ZM 126.601 150.601L 127.791 145.745L 123.865 144.782L 122.101 148.42L 126.601 150.601ZM 106.097 167.492L 107.384 172.324L 107.384 172.324L 106.097 167.492ZM 76.3544 160.32L 79.704 156.608L 76.9078 154.084L 73.7108 156.076L 76.3544 160.32ZM 67.6528 164.08L 66.3659 159.248L 66.3658 159.248L 67.6528 164.08ZM 30.0793 146.008L 34.6679 144.022L 33.4437 141.193L 30.3667 141.016L 30.0793 146.008ZM 1.09563 122.532L 5.92334 121.231L 5.92333 121.231L 1.09563 122.532ZM 131.574 159.051L 132.868 163.881L 132.868 163.881L 131.574 159.051ZM 152.548 171.166L 157.378 169.872L 157.378 169.872L 152.548 171.166ZM 119.464 180.035L 124.294 178.741L 124.294 178.741L 119.464 180.035ZM 140.438 192.15L 141.733 196.979L 141.733 196.979L 140.438 192.15ZM 176.411 184.602L 181.241 183.308L 181.241 183.308L 176.411 184.602ZM 164.356 177.639L 165.651 182.469L 165.651 182.469L 164.356 177.639ZM 157.397 189.699L 162.226 188.406L 162.226 188.406L 157.397 189.699ZM 12.2459 89.4968C 9.50811 86.4019 7.71376 83.1514 6.60985 78.9186L -3.04555 81.5212C -1.56206 86.8876 1.31107 92.1297 4.70996 96.0702L 12.2459 89.4968ZM 6.60986 78.9187C 2.77334 64.6849 11.2626 50.0155 25.6419 46.1854L 23.068 36.5223C 3.38766 41.7644 -8.33501 61.897 -3.04556 81.5212L 6.60986 78.9187ZM 25.6419 46.1854C 27.0189 45.8149 28.2205 45.5899 29.598 45.4368L 28.4697 35.5006C 26.734 35.701 24.809 36.0622 23.068 36.5223L 25.6419 46.1854ZM 34.0018 41.0336C 35.2067 30.438 42.7767 21.1381 53.7886 18.2049L 51.2147 8.54182C 36.1231 12.5617 25.7233 25.328 24.0659 39.9038L 34.0018 41.0336ZM 53.7886 18.2049C 61.3216 16.1983 68.956 17.5677 75.0835 21.3872L 80.3733 12.9008C 71.9946 7.67807 61.5249 5.79547 51.2147 8.54182L 53.7886 18.2049ZM 82.1618 19.456C 85.5212 13.0142 91.4828 7.94908 99.0979 5.92072L 96.524 -3.74237C 86.0981 -0.965311 77.9039 5.99427 73.2951 14.832L 82.1618 19.456ZM 99.0979 5.92071C 112.972 2.22508 127.19 9.99433 131.627 23.3239L 141.115 20.1655C 135.005 1.80927 115.495 -8.79551 96.524 -3.74236L 99.0979 5.92071ZM 137.324 26.6531C 151.11 23.9769 164.789 32.3486 168.465 45.9858L 178.12 43.3833C 173.058 24.6029 154.273 13.1761 135.418 16.8363L 137.324 26.6531ZM 168.465 45.9857C 170.397 52.7929 169.608 58.8627 166.587 64.7564L 175.535 69.2215C 179.178 61.7626 180.374 52.1049 178.12 43.3833L 168.465 45.9857ZM 168.568 71.3227C 174.531 74.7541 179.159 80.427 181.077 87.542L 190.732 84.9394C 188.093 75.1496 181.713 67.3491 173.555 62.6552L 168.568 71.3227ZM 181.077 87.5419C 184.722 101.067 177.238 114.986 164.15 119.623L 167.489 129.049C 185.422 122.696 195.759 103.588 190.732 84.9394L 181.077 87.5419ZM 160.873 123.612C 159.372 133.857 151.914 142.744 141.195 145.599L 143.769 155.263C 158.459 151.35 168.704 139.148 170.767 125.061L 160.873 123.612ZM 141.195 145.599C 136.456 146.907 132.27 146.879 127.791 145.745L 125.41 155.457C 131.048 156.804 137.732 156.825 143.769 155.263L 141.195 145.599ZM 122.101 148.42C 118.817 155.197 112.7 160.559 104.81 162.661L 107.384 172.324C 118.188 169.446 126.595 162.077 131.1 152.782L 122.101 148.42ZM 104.81 162.661C 95.6196 165.109 86.2671 162.53 79.704 156.608L 73.0048 164.032C 81.9817 172.132 94.7958 175.677 107.384 172.324L 104.81 162.661ZM 73.7108 156.076C 71.3908 157.536 69.1533 158.521 66.3659 159.248L 68.9396 168.912C 72.4613 167.958 76.0578 166.38 78.998 164.564L 73.7108 156.076ZM 66.3658 159.248C 53.2683 162.737 39.8551 156.006 34.6679 144.022L 25.4906 147.994C 32.6306 164.49 51.0211 173.685 68.9397 168.912L 66.3658 159.248ZM 30.3667 141.016C 19.0681 140.366 8.99728 132.635 5.92334 121.231L -3.73208 123.833C 0.504523 139.551 14.3542 150.111 29.7919 151L 30.3667 141.016ZM 5.92333 121.231C 3.45065 112.057 6.09091 102.71 12.144 96.1835L 4.81189 89.3835C -3.47729 98.3213 -7.14074 111.187 -3.73208 123.833L 5.92333 121.231ZM 132.868 163.881C 139.335 162.147 145.984 165.986 147.718 172.46L 157.378 169.872C 154.215 158.067 142.084 151.057 130.279 154.222L 132.868 163.881ZM 124.294 178.741C 122.56 172.267 126.401 165.614 132.868 163.881L 130.279 154.222C 118.475 157.386 111.472 169.523 114.634 181.328L 124.294 178.741ZM 139.144 187.32C 132.677 189.054 126.028 185.215 124.294 178.741L 114.634 181.328C 117.796 193.134 129.928 200.144 141.733 196.979L 139.144 187.32ZM 147.718 172.46C 149.452 178.934 145.611 185.586 139.144 187.32L 141.733 196.979C 153.537 193.815 160.539 181.678 157.378 169.872L 147.718 172.46ZM 181.241 183.308C 179.12 175.389 170.982 170.687 163.062 172.81L 165.651 182.469C 168.232 181.777 170.888 183.309 171.581 185.896L 181.241 183.308ZM 170.746 201.492C 178.665 199.369 183.362 191.227 181.241 183.308L 171.581 185.896C 172.274 188.483 170.739 191.14 168.157 191.833L 170.746 201.492ZM 152.567 190.993C 154.688 198.912 162.826 203.615 170.746 201.492L 168.157 191.833C 165.575 192.525 162.919 190.993 162.226 188.406L 152.567 190.993ZM 163.062 172.81C 155.142 174.933 150.446 183.075 152.567 190.993L 162.226 188.406C 161.533 185.818 163.069 183.161 165.651 182.469L 163.062 172.81Z"/>
<path id="path2_stroke" d="M 0 2.5L 52.2346 2.5L 52.2346 -2.5L 0 -2.5L 0 2.5Z"/>
<path id="path3_fill" d="M 0 0L 18.6824 0L 18.6824 18.6522L 0 18.6522L 0 0Z"/>
<path id="path4_stroke_2x" d="M 0 0L 0 -5L -5 -5L -5 0L 0 0ZM 18.6824 0L 23.6824 0L 23.6824 -5L 18.6824 -5L 18.6824 0ZM 18.6824 18.6522L 18.6824 23.6522L 23.6824 23.6522L 23.6824 18.6522L 18.6824 18.6522ZM 0 18.6522L -5 18.6522L -5 23.6522L 0 23.6522L 0 18.6522ZM 0 5L 18.6824 5L 18.6824 -5L 0 -5L 0 5ZM 13.6824 0L 13.6824 18.6522L 23.6824 18.6522L 23.6824 0L 13.6824 0ZM 18.6824 13.6522L 0 13.6522L 0 23.6522L 18.6824 23.6522L 18.6824 13.6522ZM 5 18.6522L 5 0L -5 0L -5 18.6522L 5 18.6522Z"/>
<path id="path5_fill" d="M 47.6613 34.867C 48.0828 34.867 48.407 35.0615 48.634 35.4505C 48.8934 35.8396 49.0231 36.3745 49.0231 37.0553C 49.0231 38.3196 48.715 39.3246 48.099 40.0703C 46.5427 41.9506 44.9702 43.4095 43.3815 44.4469C 41.7928 45.4519 39.9123 45.9544 37.74 45.9544C 35.6325 45.9544 33.833 45.3871 32.3416 44.2524C 30.8826 43.1177 29.4884 41.1725 28.1591 38.4169C 27.0891 36.2124 26.2461 34.5914 25.6301 33.554C 25.0141 32.4842 24.3981 31.7223 23.782 31.2684C 23.1984 30.8146 22.4689 30.539 21.5935 30.4418C 21.4638 31.1226 21.0909 33.2622 20.4749 36.8608C 20.2155 38.4817 20.0534 39.4705 19.9886 39.8271C 19.6643 41.8047 19.0159 43.3284 18.0432 44.3983C 17.0705 45.4357 15.5953 45.9544 13.6175 45.9544C 11.4452 45.9544 9.51605 45.3222 7.83007 44.0579C 6.17652 42.7611 4.89582 40.978 3.98799 38.7087C 3.08015 36.4069 2.62624 33.7971 2.62624 30.8794C 2.62624 25.433 3.56649 20.7322 5.44701 16.777C 7.35994 12.8218 10.0186 9.80685 13.423 7.73201C 16.8598 5.62475 20.8153 4.57113 25.2897 4.57113C 28.4023 4.57113 31.0123 5.04121 33.1197 5.98137C 35.2272 6.92153 36.7835 8.2183 37.7886 9.87169C 38.8261 11.5251 39.3449 13.3892 39.3449 15.464C 39.3449 17.2795 38.9072 19.0626 38.0318 20.8132C 37.1888 22.5314 35.9081 24.0551 34.1897 25.3843C 32.4713 26.7135 30.38 27.7023 27.9159 28.3507C 29.4722 28.7722 30.6718 29.453 31.5148 30.3931C 32.3578 31.3333 33.2008 32.7111 34.0438 34.5266C 34.9516 36.4717 35.8433 37.8982 36.7187 38.8059C 37.6265 39.7137 38.664 40.1676 39.8312 40.1676C 40.8688 40.1676 41.8577 39.8271 42.7979 39.1463C 43.7382 38.4331 44.9216 37.2336 46.3482 35.5478C 46.7373 35.0939 47.175 34.867 47.6613 34.867ZM 14.882 30.3931C 13.7796 30.3931 13.0177 30.1338 12.5962 29.6151C 12.2071 29.0963 12.0126 28.5128 12.0126 27.8644C 12.0126 27.0864 12.2558 26.4704 12.7421 26.0165C 13.2609 25.5626 13.8445 25.3357 14.4929 25.3357L 15.7088 25.3357C 16.2275 22.1586 16.7139 19.4192 17.1678 17.1174C 17.5893 15.0102 18.951 13.9565 21.2531 13.9565C 23.1011 13.9565 24.0252 14.7832 24.0252 16.4366C 24.0252 16.7932 24.009 17.0688 23.9766 17.2633L 22.5175 25.3357C 24.2684 25.2384 25.8571 24.817 27.2837 24.0714C 28.7427 23.3257 29.8937 22.2883 30.7367 20.9591C 31.6121 19.6299 32.0498 18.1224 32.0498 16.4366C 32.0498 14.3942 31.3527 12.7894 29.9585 11.6223C 28.5644 10.4552 26.5217 9.87169 23.8307 9.87169C 20.6532 9.87169 17.8649 10.666 15.4656 12.2545C 13.0988 13.8106 11.2507 16.1448 9.92133 19.2571C 8.59201 22.3369 7.92734 26.0976 7.92734 30.539C 7.92734 32.6138 8.13809 34.3969 8.55958 35.8882C 8.98108 37.3795 9.49984 38.498 10.1159 39.2436C 10.7319 39.9892 11.3155 40.3621 11.8667 40.3621C 12.2882 40.3621 12.6286 40.1513 12.888 39.7299C 13.1798 39.3084 13.4068 38.6276 13.5689 37.6875L 14.882 30.3931Z"/>
<path id="path6_fill" d="M 65.8189 34.867C 66.2404 34.867 66.5646 35.0615 66.7916 35.4505C 67.0509 35.8396 67.1806 36.3745 67.1806 37.0553C 67.1806 38.3521 66.8726 39.3571 66.2566 40.0703C 65.057 41.5292 63.3548 42.8746 61.15 44.1065C 58.9777 45.3384 56.6433 45.9544 54.1467 45.9544C 50.7424 45.9544 48.0999 45.0304 46.2194 43.1825C 44.3389 41.3346 43.3986 38.8059 43.3986 35.5964C 43.3986 33.3595 43.8687 31.2847 44.809 29.3719C 45.7493 27.4268 47.0462 25.8868 48.6997 24.7522C 50.3857 23.6175 52.2824 23.0501 54.3899 23.0501C 56.2704 23.0501 57.7781 23.6175 58.9129 24.7522C 60.0477 25.8544 60.6151 27.3619 60.6151 29.2747C 60.6151 31.5116 59.8045 33.4405 58.1834 35.0615C 56.5946 36.6501 53.8873 37.9144 50.0615 38.8546C 50.872 40.3459 52.4121 41.0915 54.6817 41.0915C 56.1407 41.0915 57.7943 40.589 59.6424 39.584C 61.5229 38.5466 63.144 37.2012 64.5058 35.5478C 64.8948 35.0939 65.3326 34.867 65.8189 34.867ZM 53.5631 27.8158C 52.3635 27.8158 51.3422 28.5128 50.4992 29.9068C 49.6886 31.3009 49.2833 32.9867 49.2833 34.9642L 49.2833 35.0615C 51.1963 34.6076 52.7039 33.9268 53.8063 33.0191C 54.9087 32.1113 55.4599 31.0577 55.4599 29.8582C 55.4599 29.2422 55.2815 28.7559 54.9249 28.3993C 54.6006 28.0103 54.1467 27.8158 53.5631 27.8158Z"/>
<path id="path7_fill" d="M 66.6738 45.9544C 65.4417 45.9544 64.5663 45.306 64.0475 44.0092C 63.5612 42.7125 63.318 40.6376 63.318 37.7847C 63.318 33.5702 63.9179 29.5664 65.1175 25.7734C 65.4093 24.8332 65.8794 24.1524 66.5279 23.7309C 67.2088 23.2771 68.149 23.0501 69.3487 23.0501C 69.9971 23.0501 70.451 23.1312 70.7104 23.2933C 70.9698 23.4554 71.0995 23.7634 71.0995 24.2172C 71.0995 24.7359 70.8563 25.903 70.37 27.7185C 70.0457 29.0153 69.7864 30.15 69.5918 31.1226C 69.3973 32.0627 69.2352 33.246 69.1055 34.6725C 69.9809 32.1438 71.0184 30.0041 72.2181 28.2534C 73.4501 26.5028 74.6984 25.206 75.9629 24.3631C 77.2598 23.4878 78.4756 23.0501 79.6104 23.0501C 80.7452 23.0501 81.5396 23.3095 81.9935 23.8282C 82.4798 24.3469 82.723 25.1412 82.723 26.211C 82.723 27.2484 82.415 29.1288 81.799 31.852C 81.5396 33.0191 81.3613 33.8944 81.264 34.478C 82.8851 30.4904 84.6846 27.5888 86.6624 25.7734C 88.6401 23.9579 90.4882 23.0501 92.2066 23.0501C 94.3141 23.0501 95.3678 24.1038 95.3678 26.211C 95.3678 27.4754 95.0112 29.7609 94.2979 33.0677C 93.6819 35.8882 93.3738 37.7523 93.3738 38.6601C 93.3738 39.9568 93.844 40.6052 94.7842 40.6052C 95.4327 40.6052 96.1946 40.2162 97.07 39.4381C 97.9779 38.6276 99.1775 37.3309 100.669 35.5478C 101.058 35.0939 101.496 34.867 101.982 34.867C 102.404 34.867 102.728 35.0615 102.955 35.4505C 103.214 35.8396 103.344 36.3745 103.344 37.0553C 103.344 38.3521 103.036 39.3571 102.42 40.0703C 101.026 41.7885 99.5179 43.1988 97.8968 44.301C 96.3081 45.4033 94.4924 45.9544 92.4498 45.9544C 90.7962 45.9544 89.548 45.4843 88.705 44.5442C 87.862 43.5716 87.4405 42.1775 87.4405 40.3621C 87.4405 39.4543 87.6675 37.8334 88.1214 35.4992C 88.5429 33.4567 88.7536 32.0465 88.7536 31.2684C 88.7536 30.7497 88.5753 30.4904 88.2186 30.4904C 87.7972 30.4904 87.1973 31.0415 86.4192 32.1438C 85.641 33.2136 84.8629 34.6401 84.0848 36.4231C 83.3066 38.2062 82.6744 40.0865 82.188 42.0641C 81.8314 43.6202 81.4099 44.6576 80.9235 45.1763C 80.4696 45.695 79.7239 45.9544 78.6864 45.9544C 77.6164 45.9544 76.8059 45.4519 76.2547 44.4469C 75.7359 43.4095 75.4765 42.1613 75.4765 40.7025C 75.4765 39.4705 75.6387 37.6875 75.9629 35.3533C 76.2223 33.2784 76.3519 31.9168 76.3519 31.2684C 76.3519 30.7497 76.1736 30.4904 75.817 30.4904C 75.3306 30.4904 74.7146 31.0739 73.9689 32.241C 73.2232 33.4081 72.4936 34.8994 71.7804 36.7149C 71.0995 38.5304 70.5483 40.3134 70.1268 42.0641C 69.7701 43.5878 69.3487 44.6252 68.8623 45.1763C 68.4084 45.695 67.6789 45.9544 66.6738 45.9544Z"/>
<path id="path8_fill" d="M 121.102 34.867C 121.524 34.867 121.848 35.0615 122.075 35.4505C 122.334 35.8396 122.464 36.3745 122.464 37.0553C 122.464 38.3521 122.156 39.3571 121.54 40.0703C 120.34 41.5292 118.638 42.8746 116.433 44.1065C 114.261 45.3384 111.926 45.9544 109.43 45.9544C 106.026 45.9544 103.383 45.0304 101.503 43.1825C 99.622 41.3346 98.6818 38.8059 98.6818 35.5964C 98.6818 33.3595 99.1519 31.2847 100.092 29.3719C 101.032 27.4268 102.329 25.8868 103.983 24.7522C 105.669 23.6175 107.566 23.0501 109.673 23.0501C 111.554 23.0501 113.061 23.6175 114.196 24.7522C 115.331 25.8544 115.898 27.3619 115.898 29.2747C 115.898 31.5116 115.088 33.4405 113.467 35.0615C 111.878 36.6501 109.171 37.9144 105.345 38.8546C 106.155 40.3459 107.695 41.0915 109.965 41.0915C 111.424 41.0915 113.077 40.589 114.926 39.584C 116.806 38.5466 118.427 37.2012 119.789 35.5478C 120.178 35.0939 120.616 34.867 121.102 34.867ZM 108.846 27.8158C 107.647 27.8158 106.625 28.5128 105.782 29.9068C 104.972 31.3009 104.566 32.9867 104.566 34.9642L 104.566 35.0615C 106.479 34.6076 107.987 33.9268 109.089 33.0191C 110.192 32.1113 110.743 31.0577 110.743 29.8582C 110.743 29.2422 110.565 28.7559 110.208 28.3993C 109.884 28.0103 109.43 27.8158 108.846 27.8158Z"/>
<path id="path9_fill" d="M 121.957 45.9544C 120.725 45.9544 119.849 45.306 119.331 44.0092C 118.844 42.7125 118.601 40.6376 118.601 37.7847C 118.601 33.5702 119.201 29.5664 120.401 25.7734C 120.692 24.8332 121.163 24.1524 121.811 23.7309C 122.492 23.2771 123.432 23.0501 124.632 23.0501C 125.28 23.0501 125.734 23.1312 125.994 23.2933C 126.253 23.4554 126.383 23.7634 126.383 24.2172C 126.383 24.7359 126.139 25.903 125.653 27.7185C 125.329 29.0153 125.07 30.15 124.875 31.1226C 124.68 32.0627 124.518 33.246 124.389 34.6725C 125.264 32.1438 126.302 30.0041 127.501 28.2534C 128.733 26.5028 129.982 25.206 131.246 24.3631C 132.543 23.4878 133.759 23.0501 134.894 23.0501C 136.028 23.0501 136.823 23.3095 137.277 23.8282C 137.763 24.3469 138.006 25.1412 138.006 26.211C 138.006 27.2484 137.698 29.1288 137.082 31.852C 136.823 33.0191 136.644 33.8944 136.547 34.478C 138.168 30.4904 139.968 27.5888 141.946 25.7734C 143.923 23.9579 145.771 23.0501 147.49 23.0501C 149.597 23.0501 150.651 24.1038 150.651 26.211C 150.651 27.4754 150.294 29.7609 149.581 33.0677C 148.965 35.8882 148.657 37.7523 148.657 38.6601C 148.657 39.9568 149.127 40.6052 150.067 40.6052C 150.716 40.6052 151.478 40.2162 152.353 39.4381C 153.261 38.6276 154.461 37.3309 155.952 35.5478C 156.341 35.0939 156.779 34.867 157.265 34.867C 157.687 34.867 158.011 35.0615 158.238 35.4505C 158.497 35.8396 158.627 36.3745 158.627 37.0553C 158.627 38.3521 158.319 39.3571 157.703 40.0703C 156.309 41.7885 154.801 43.1988 153.18 44.301C 151.591 45.4033 149.776 45.9544 147.733 45.9544C 146.079 45.9544 144.831 45.4843 143.988 44.5442C 143.145 43.5716 142.724 42.1775 142.724 40.3621C 142.724 39.4543 142.951 37.8334 143.405 35.4992C 143.826 33.4567 144.037 32.0465 144.037 31.2684C 144.037 30.7497 143.858 30.4904 143.502 30.4904C 143.08 30.4904 142.481 31.0415 141.702 32.1438C 140.924 33.2136 140.146 34.6401 139.368 36.4231C 138.59 38.2062 137.958 40.0865 137.471 42.0641C 137.115 43.6202 136.693 44.6576 136.207 45.1763C 135.753 45.695 135.007 45.9544 133.97 45.9544C 132.9 45.9544 132.089 45.4519 131.538 44.4469C 131.019 43.4095 130.76 42.1613 130.76 40.7025C 130.76 39.4705 130.922 37.6875 131.246 35.3533C 131.505 33.2784 131.635 31.9168 131.635 31.2684C 131.635 30.7497 131.457 30.4904 131.1 30.4904C 130.614 30.4904 129.998 31.0739 129.252 32.241C 128.506 33.4081 127.777 34.8994 127.064 36.7149C 126.383 38.5304 125.831 40.3134 125.41 42.0641C 125.053 43.5878 124.632 44.6252 124.145 45.1763C 123.692 45.695 122.962 45.9544 121.957 45.9544Z"/>
<path id="path10_fill" d="M 180.568 30.7822C 180.989 30.7822 181.313 30.9929 181.54 31.4143C 181.767 31.8358 181.881 32.3707 181.881 33.0191C 181.881 33.8296 181.767 34.4617 181.54 34.9156C 181.313 35.3371 180.957 35.6288 180.47 35.7909C 178.525 36.4717 176.385 36.8608 174.051 36.958C 173.402 39.6488 172.17 41.8209 170.355 43.4743C 168.571 45.1277 166.594 45.9544 164.421 45.9544C 161.147 45.9544 158.764 44.7063 157.272 42.21C 155.781 39.7137 155.035 36.0989 155.035 31.3657C 155.035 27.1836 155.554 22.6449 156.591 17.7496C 157.629 12.8218 159.136 8.63975 161.114 5.2033C 163.124 1.73443 165.507 0 168.263 0C 169.755 0 170.954 0.648387 171.862 1.94516C 172.77 3.20951 173.224 4.8629 173.224 6.90532C 173.224 9.5637 172.721 12.2059 171.716 14.8318C 170.711 17.4578 169.041 20.2135 166.707 23.0988C 168.879 23.2609 170.646 24.1686 172.008 25.822C 173.37 27.443 174.18 29.453 174.44 31.852C 175.964 31.7547 177.779 31.4305 179.887 30.8794C 180.081 30.8146 180.308 30.7822 180.568 30.7822ZM 167.145 4.81427C 166.496 4.81427 165.783 5.78685 165.005 7.73201C 164.259 9.64475 163.562 12.2545 162.914 15.5613C 162.265 18.8681 161.779 22.4828 161.455 26.4055C 163.594 22.4828 165.297 19.0301 166.561 16.0476C 167.858 13.0326 168.507 10.358 168.507 8.02378C 168.507 6.98637 168.377 6.19209 168.117 5.64096C 167.89 5.08983 167.566 4.81427 167.145 4.81427ZM 164.616 40.7997C 165.621 40.7997 166.513 40.3783 167.291 39.5354C 168.069 38.6925 168.588 37.4767 168.847 35.8882C 167.842 35.2074 167.064 34.3159 166.513 33.2136C 165.994 32.1113 165.734 30.9442 165.734 29.7123C 165.734 29.2584 165.799 28.6425 165.929 27.8644L 165.783 27.8644C 164.454 27.8644 163.335 28.529 162.427 29.8582C 161.552 31.155 161.114 32.9056 161.114 35.1101C 161.114 36.958 161.455 38.3683 162.135 39.3409C 162.849 40.3134 163.676 40.7997 164.616 40.7997Z"/>
<path id="path11_fill" d="M 199.372 34.867C 199.794 34.867 200.118 35.0615 200.345 35.4505C 200.604 35.8396 200.734 36.3745 200.734 37.0553C 200.734 38.3521 200.426 39.3571 199.81 40.0703C 198.61 41.5292 196.908 42.8746 194.704 44.1065C 192.531 45.3384 190.197 45.9544 187.7 45.9544C 184.296 45.9544 181.653 45.0304 179.773 43.1825C 177.892 41.3346 176.952 38.8059 176.952 35.5964C 176.952 33.3595 177.422 31.2847 178.363 29.3719C 179.303 27.4268 180.6 25.8868 182.253 24.7522C 183.939 23.6175 185.836 23.0501 187.943 23.0501C 189.824 23.0501 191.332 23.6175 192.466 24.7522C 193.601 25.8544 194.169 27.3619 194.169 29.2747C 194.169 31.5116 193.358 33.4405 191.737 35.0615C 190.148 36.6501 187.441 37.9144 183.615 38.8546C 184.426 40.3459 185.966 41.0915 188.235 41.0915C 189.694 41.0915 191.348 40.589 193.196 39.584C 195.076 38.5466 196.698 37.2012 198.059 35.5478C 198.448 35.0939 198.886 34.867 199.372 34.867ZM 187.117 27.8158C 185.917 27.8158 184.896 28.5128 184.053 29.9068C 183.242 31.3009 182.837 32.9867 182.837 34.9642L 182.837 35.0615C 184.75 34.6076 186.257 33.9268 187.36 33.0191C 188.462 32.1113 189.013 31.0577 189.013 29.8582C 189.013 29.2422 188.835 28.7559 188.478 28.3993C 188.154 28.0103 187.7 27.8158 187.117 27.8158Z"/>
<path id="path12_fill" d="M 216.422 29.7123C 217.136 29.7123 217.736 29.9717 218.222 30.4904C 218.741 30.9767 219 31.5926 219 32.3383C 219 32.7597 218.903 33.2136 218.708 33.6999C 218.189 34.8994 217.46 35.9044 216.52 36.7149C 215.579 37.5254 214.542 37.9306 213.407 37.9306C 212.499 37.9306 211.721 37.6064 211.073 36.958C 210.457 36.3096 210.149 35.4343 210.149 34.3321C 210.149 33.7161 210.181 33.0515 210.246 32.3383C 210.311 31.8196 210.343 31.463 210.343 31.2684C 210.343 31.0091 210.278 30.8146 210.149 30.6849C 210.051 30.5552 209.922 30.4904 209.76 30.4904C 209.306 30.4904 208.69 31.0415 207.911 32.1438C 207.133 33.2136 206.355 34.6401 205.577 36.4231C 204.799 38.2062 204.167 40.0865 203.68 42.0641C 203.324 43.6202 202.918 44.6576 202.464 45.1763C 202.011 45.695 201.265 45.9544 200.227 45.9544C 198.995 45.9544 198.12 45.306 197.601 44.0092C 197.115 42.7125 196.872 40.6376 196.872 37.7847C 196.872 33.5702 197.471 29.5664 198.671 25.7734C 198.963 24.8332 199.433 24.1524 200.081 23.7309C 200.762 23.2771 201.703 23.0501 202.902 23.0501C 203.551 23.0501 204.005 23.1312 204.264 23.2933C 204.523 23.4554 204.653 23.7634 204.653 24.2172C 204.653 24.7359 204.41 25.903 203.923 27.7185C 203.599 29.0153 203.34 30.15 203.145 31.1226C 202.951 32.0951 202.789 33.2947 202.659 34.7211C 203.729 31.933 204.929 29.6637 206.258 27.913C 207.587 26.1624 208.884 24.9143 210.149 24.1686C 211.413 23.423 212.564 23.0501 213.602 23.0501C 214.542 23.0501 215.255 23.3257 215.742 23.8768C 216.26 24.3955 216.52 25.1736 216.52 26.211C 216.52 26.827 216.341 27.9941 215.985 29.7123L 216.422 29.7123Z"/>
<path id="path13_fill" d="M 23.9766 94.8428C 24.3981 94.8428 24.7223 95.0373 24.9492 95.4263C 25.2086 95.8153 25.3383 96.3502 25.3383 97.0311C 25.3383 98.3278 25.0303 99.3328 24.4143 100.046C 23.0201 101.764 21.4962 103.175 19.8427 104.277C 18.1891 105.379 16.2924 105.93 14.1525 105.93C 7.53827 105.93 4.23116 101.278 4.23116 91.9736C 4.23116 90.5472 4.27979 89.1045 4.37706 87.6457L 2.48033 87.6457C 1.50765 87.6457 0.842989 87.4673 0.48634 87.1107C 0.162113 86.7541 0 86.1868 0 85.4087C 0 83.5932 0.72951 82.6855 2.18853 82.6855L 4.96067 82.6855C 5.51185 79.1194 6.35484 75.8612 7.48963 72.9111C 8.62443 69.9609 9.98618 67.6105 11.5749 65.8599C 13.196 64.1092 14.9306 63.2339 16.7787 63.2339C 18.1405 63.2339 19.2104 63.8337 19.9886 65.0332C 20.7667 66.2327 21.1558 67.7402 21.1558 69.5557C 21.1558 74.5807 19.0483 78.9573 14.8334 82.6855L 20.2804 82.6855C 20.7991 82.6855 21.172 82.799 21.399 83.0259C 21.6259 83.2528 21.7394 83.6743 21.7394 84.2903C 21.7394 86.5272 19.9075 87.6457 16.2438 87.6457L 10.3104 87.6457C 10.2456 89.2666 10.2131 90.531 10.2131 91.4387C 10.2131 94.8103 10.6022 97.1769 11.3804 98.5386C 12.1909 99.9002 13.4554 100.581 15.1738 100.581C 16.568 100.581 17.8 100.16 18.87 99.3166C 19.9399 98.4737 21.2044 97.2094 22.6634 95.5236C 23.0525 95.0697 23.4902 94.8428 23.9766 94.8428ZM 15.4656 67.9023C 14.9793 67.9023 14.4281 68.5183 13.8121 69.7502C 13.2284 70.9497 12.661 72.6355 12.1099 74.8076C 11.5911 76.9473 11.1534 79.3301 10.7967 81.9561C 12.7097 80.3027 14.1363 78.4548 15.0765 76.4124C 16.0492 74.3375 16.5356 72.4572 16.5356 70.7714C 16.5356 68.8587 16.1789 67.9023 15.4656 67.9023Z"/>
<path id="path14_fill" d="M 48.3703 94.8428C 48.7918 94.8428 49.116 95.0373 49.343 95.4263C 49.6024 95.8153 49.7321 96.3502 49.7321 97.0311C 49.7321 98.3278 49.424 99.3328 48.808 100.046C 47.3166 101.764 45.7765 103.175 44.1878 104.277C 42.6315 105.379 40.8482 105.93 38.838 105.93C 37.1845 105.93 35.9362 105.46 35.0932 104.52C 34.2502 103.547 33.8287 102.153 33.8287 100.338C 33.8287 99.4301 34.0557 97.8091 34.5096 95.4749C 34.9311 93.4325 35.1419 92.0223 35.1419 91.2442C 35.1419 90.7255 34.9635 90.4661 34.6069 90.4661C 34.1854 90.4661 33.5856 91.0173 32.8074 92.1195C 32.0293 93.1894 31.2511 94.6158 30.473 96.3989C 29.6949 98.1819 29.0626 100.062 28.5763 102.04C 27.9602 104.633 26.4364 105.93 24.0047 105.93C 23.032 105.93 22.3835 105.59 22.0593 104.909C 21.7675 104.196 21.6216 102.931 21.6216 101.116C 21.6216 100.078 21.6378 99.2518 21.6702 98.6358L 21.7189 94.7455C 21.7189 89.7529 22.2214 84.5496 23.2265 79.1356C 24.2641 73.7216 25.7717 69.1828 27.7495 65.5195C 29.7597 61.8237 32.159 59.9758 34.9473 59.9758C 36.4388 59.9758 37.6384 60.6241 38.5462 61.9209C 39.4865 63.1853 39.9566 64.8387 39.9566 66.8811C 39.9566 70.1554 39.0002 73.5595 37.0872 77.0932C 35.1743 80.5945 32.0617 84.6955 27.7495 89.3963C 27.6522 91.0821 27.6036 92.8165 27.6036 94.5996C 28.6735 91.844 29.857 89.607 31.1539 87.8888C 32.4832 86.1382 33.7801 84.89 35.0446 84.1444C 36.3415 83.3987 37.5249 83.0259 38.5949 83.0259C 40.7023 83.0259 41.7561 84.0795 41.7561 86.1868C 41.7561 87.4511 41.3994 89.7367 40.6861 93.0435C 40.0701 95.864 39.7621 97.7281 39.7621 98.6358C 39.7621 99.9326 40.2322 100.581 41.1725 100.581C 41.8209 100.581 42.5829 100.192 43.4583 99.4139C 44.3661 98.6034 45.5657 97.3066 47.0572 95.5236C 47.4463 95.0697 47.884 94.8428 48.3703 94.8428ZM 33.926 64.79C 33.3424 64.79 32.6939 65.6329 31.9807 67.3187C 31.2674 68.9721 30.5703 71.2253 29.8894 74.0782C 29.2409 76.8987 28.706 79.9785 28.2845 83.3177C 30.2947 80.9511 31.9482 78.3737 33.2451 75.5857C 34.5745 72.7976 35.2391 70.2689 35.2391 67.9995C 35.2391 66.9621 35.1256 66.1679 34.8987 65.6167C 34.6717 65.0656 34.3475 64.79 33.926 64.79Z"/>
<path id="path15_fill" d="M 63.2014 96.3016C 63.6229 96.3016 63.9471 96.4961 64.1741 96.8852C 64.4335 97.2742 64.5631 97.8091 64.5631 98.4899C 64.5631 99.657 64.2876 100.662 63.7364 101.505C 62.8285 102.899 61.6289 103.985 60.1374 104.763C 58.6784 105.541 56.9276 105.93 54.885 105.93C 51.7724 105.93 49.3569 105.006 47.6385 103.158C 45.9201 101.278 45.0609 98.7493 45.0609 95.5722C 45.0609 93.3352 45.531 91.2604 46.4713 89.3477C 47.4116 87.4025 48.7085 85.8626 50.362 84.7279C 52.048 83.5932 53.9447 83.0259 56.0522 83.0259C 57.9327 83.0259 59.4404 83.5932 60.5752 84.7279C 61.7099 85.8302 62.2774 87.3377 62.2774 89.2504C 62.2774 91.4873 61.4668 93.4163 59.8457 95.0373C 58.2569 96.6258 55.5334 97.8902 51.6751 98.8303C 52.4533 100.322 53.7664 101.067 55.6145 101.067C 56.9438 101.067 58.03 100.759 58.873 100.143C 59.7484 99.5273 60.7535 98.4899 61.8883 97.0311C 62.2773 96.5448 62.7151 96.3016 63.2014 96.3016ZM 55.2254 87.7915C 54.0258 87.7915 53.0045 88.4886 52.1615 89.8826C 51.3509 91.2766 50.9456 92.9624 50.9456 94.94L 50.9456 95.0373C 52.8586 94.5834 54.3662 93.9026 55.4686 92.9949C 56.571 92.0871 57.1221 91.0335 57.1221 89.834C 57.1221 89.218 56.9438 88.7317 56.5872 88.3751C 56.2629 87.9861 55.809 87.7915 55.2254 87.7915Z"/>
<path id="path16_fill" d="M 97.0886 94.8428C 97.5101 94.8428 97.8344 95.0373 98.0613 95.4263C 98.3207 95.8153 98.4504 96.3502 98.4504 97.0311C 98.4504 98.3278 98.1424 99.3328 97.5264 100.046C 96.1322 101.764 94.6083 103.175 92.9548 104.277C 91.3336 105.379 89.4855 105.93 87.4105 105.93C 84.5573 105.93 82.4336 104.633 81.0394 102.04C 79.6777 99.4463 78.9968 96.0909 78.9968 91.9736C 78.9968 88.0185 79.4994 83.5122 80.5045 78.4548C 81.542 73.3974 83.0496 69.0532 85.0274 65.4222C 87.0376 61.7912 89.4207 59.9758 92.1766 59.9758C 93.7329 59.9758 94.9488 60.7052 95.8242 62.1641C 96.732 63.5905 97.1859 65.6491 97.1859 68.3399C 97.1859 72.1978 96.116 76.6717 93.9761 81.7616C 91.8362 86.8514 88.9344 91.8926 85.2706 96.8852C 85.4975 98.2144 85.8704 99.1707 86.3892 99.7543C 86.9079 100.305 87.5888 100.581 88.4318 100.581C 89.7611 100.581 90.9283 100.208 91.9334 99.4625C 92.9385 98.6844 94.2192 97.3715 95.7755 95.5236C 96.1646 95.0697 96.6023 94.8428 97.0886 94.8428ZM 91.1067 64.79C 90.3609 64.79 89.518 66.1354 88.5777 68.8262C 87.6374 71.517 86.8107 74.8562 86.0974 78.8438C 85.3841 82.8314 84.995 86.6569 84.9301 90.3203C 87.2322 86.5272 89.064 82.7341 90.4258 78.9411C 91.7875 75.1156 92.4684 71.6305 92.4684 68.4858C 92.4684 66.022 92.0145 64.79 91.1067 64.79Z"/>
<path id="path17_fill" d="M 100.89 79.8164C 99.5287 79.8164 98.5074 79.5084 97.8265 78.8924C 97.1456 78.244 96.8052 77.3525 96.8052 76.2178C 96.8052 75.0832 97.2429 74.143 98.1183 73.3974C 99.0262 72.6193 100.145 72.2303 101.474 72.2303C 102.674 72.2303 103.646 72.522 104.392 73.1056C 105.138 73.6891 105.511 74.5158 105.511 75.5857C 105.511 76.8824 105.089 77.9199 104.246 78.6979C 103.403 79.4436 102.285 79.8164 100.89 79.8164ZM 100.501 105.93C 98.3939 105.93 96.8538 105.185 95.8812 103.693C 94.9409 102.202 94.4708 100.224 94.4708 97.7605C 94.4708 96.3016 94.6491 94.4375 95.0057 92.1682C 95.3948 89.8664 95.8812 87.7267 96.4648 85.7491C 96.7566 84.7117 97.1456 83.9985 97.632 83.6095C 98.1183 83.2204 98.8965 83.0259 99.9664 83.0259C 101.62 83.0259 102.447 83.577 102.447 84.6793C 102.447 85.4898 102.139 87.3701 101.523 90.3203C 100.745 93.8864 100.355 96.3016 100.355 97.566C 100.355 98.5386 100.485 99.2842 100.745 99.8029C 101.004 100.322 101.442 100.581 102.058 100.581C 102.641 100.581 103.371 100.176 104.246 99.3652C 105.122 98.5548 106.289 97.2742 107.748 95.5236C 108.137 95.0697 108.575 94.8428 109.061 94.8428C 109.482 94.8428 109.807 95.0373 110.034 95.4263C 110.293 95.8153 110.423 96.3502 110.423 97.0311C 110.423 98.3278 110.115 99.3328 109.499 100.046C 106.289 103.969 103.29 105.93 100.501 105.93Z"/>
<path id="path18_fill" d="M 115.534 107C 113.848 107 112.551 106.611 111.643 105.833C 110.768 105.055 110.33 104.18 110.33 103.207C 110.33 102.364 110.638 101.635 111.254 101.019C 111.87 100.403 112.778 100.095 113.978 100.095C 114.399 100.095 114.885 100.143 115.437 100.241C 116.02 100.305 116.458 100.354 116.75 100.386C 116.717 99.5436 116.523 98.7493 116.166 98.0036C 115.842 97.258 115.42 96.5448 114.902 95.864C 114.383 95.1507 113.896 94.5348 113.443 94.0161C 112.437 95.9288 111.432 97.5173 110.427 98.7817C 109.455 100.046 108.385 101.246 107.217 102.38C 106.634 102.964 106.018 103.256 105.369 103.256C 104.851 103.256 104.429 103.077 104.105 102.721C 103.781 102.332 103.619 101.862 103.619 101.31C 103.619 100.662 103.845 100.062 104.299 99.5111L 104.932 98.7331C 106.715 96.5286 108.06 94.7131 108.968 93.2866C 109.519 92.3465 110.168 91.0983 110.914 89.5422C 111.659 87.9536 112.389 86.3165 113.102 84.6307C 113.718 83.2042 114.999 82.491 116.944 82.491C 117.852 82.491 118.484 82.572 118.841 82.7341C 119.198 82.8962 119.376 83.1556 119.376 83.5122C 119.376 83.7067 119.311 84.0147 119.181 84.4361C 119.052 84.8576 118.873 85.2791 118.646 85.7005C 118.063 86.8676 117.771 87.8564 117.771 88.6669C 117.771 89.1532 117.933 89.6881 118.257 90.2716C 118.614 90.8552 119.149 91.5846 119.862 92.4599C 120.9 93.8215 121.678 94.9886 122.197 95.9612C 122.748 96.9014 123.023 97.9388 123.023 99.0735C 123.023 99.3977 122.991 99.8515 122.926 100.435C 124.515 99.8191 126.379 98.1819 128.519 95.5236C 128.908 95.0697 129.346 94.8428 129.832 94.8428C 130.254 94.8428 130.578 95.0373 130.805 95.4263C 131.064 95.8153 131.194 96.3502 131.194 97.0311C 131.194 98.263 130.886 99.268 130.27 100.046C 128.649 102.056 127.093 103.434 125.601 104.18C 124.142 104.893 122.326 105.282 120.154 105.347C 118.857 106.449 117.317 107 115.534 107Z"/>
<path id="path19_fill" d="M 135.267 87.6457C 135.203 89.2666 135.17 90.531 135.17 91.4387C 135.17 93.7729 135.284 95.6046 135.511 96.9338C 135.77 98.2306 136.175 99.1707 136.726 99.7543C 137.31 100.305 138.104 100.581 139.11 100.581C 139.628 100.581 140.244 100.419 140.958 100.095C 141.671 99.7705 142.319 99.349 142.903 98.8303C 143.26 98.5061 143.616 98.344 143.973 98.344C 144.362 98.344 144.67 98.571 144.897 99.0248C 145.156 99.4463 145.286 99.965 145.286 100.581C 145.286 101.197 145.156 101.797 144.897 102.38C 144.67 102.964 144.313 103.45 143.827 103.839C 142.141 105.233 140.228 105.93 138.088 105.93C 135.008 105.93 132.755 104.65 131.328 102.088C 129.902 99.4949 129.188 96.1233 129.188 91.9736C 129.188 90.5472 129.237 89.1045 129.334 87.6457L 127.437 87.6457C 126.465 87.6457 125.8 87.4673 125.443 87.1107C 125.119 86.7541 124.957 86.1868 124.957 85.4087C 124.957 83.5932 125.687 82.6855 127.146 82.6855L 129.918 82.6855C 130.469 79.1194 131.312 75.8612 132.447 72.9111C 133.581 69.9609 134.943 67.6105 136.532 65.8599C 138.153 64.1092 139.888 63.2339 141.736 63.2339C 143.098 63.2339 144.167 63.8337 144.946 65.0332C 145.724 66.2327 146.113 67.7402 146.113 69.5557C 146.113 74.5807 144.005 78.9573 139.79 82.6855L 145.237 82.6855C 145.756 82.6855 146.129 82.799 146.356 83.0259C 146.583 83.2528 146.696 83.6743 146.696 84.2903C 146.696 86.5272 144.865 87.6457 141.201 87.6457L 135.267 87.6457ZM 140.423 67.9023C 139.936 67.9023 139.385 68.5183 138.769 69.7502C 138.186 70.9497 137.618 72.6355 137.067 74.8076C 136.548 76.9473 136.11 79.3301 135.754 81.9561C 137.667 80.3027 139.093 78.4548 140.034 76.4124C 141.006 74.3375 141.493 72.4572 141.493 70.7714C 141.493 68.8587 141.136 67.9023 140.423 67.9023Z"/>
</defs>
</svg>
