<svg width="426" height="197" viewBox="0 0 426 197" version="1.1" xmlns="http://www.w3.org/2000/svg" xmlns:xlink="http://www.w3.org/1999/xlink">
<title>remember_the_list_logo_01</title>
<desc>Created using Figma</desc>
<g id="Canvas" transform="translate(4029 -1131)">
<g id="remember_the_list_logo_01">
<g id="Group 6">
<g id="Union">
<use xlink:href="#path0_fill" transform="translate(-4029 1131)" fill="#FFFFFF"/>
<mask id="mask0_outline_ins">
<use xlink:href="#path0_fill" fill="white" transform="translate(-4029 1131)"/>
</mask>
<g mask="url(#mask0_outline_ins)">
<use xlink:href="#path1_stroke_2x" transform="translate(-4029 1131)" fill="#145275"/>
</g>
</g>
<g id="Group 5">
<g id="Group 4">
<g id="Vector">
<use xlink:href="#path2_stroke" transform="translate(-3949.6 1198.75)" fill="#145275"/>
</g>
<g id="Rectangle">
<mask id="mask1_outline_ins">
<use xlink:href="#path3_fill" fill="white" transform="translate(-3973.63 1189.37)"/>
</mask>
<g mask="url(#mask1_outline_ins)">
<use xlink:href="#path4_stroke_2x" transform="translate(-3973.63 1189.37)" fill="#145275"/>
</g>
</g>
</g>
<g id="Group 4.1">
<g id="Vector">
<use xlink:href="#path2_stroke" transform="translate(-3949.6 1222.73)" fill="#145275"/>
</g>
<g id="Rectangle">
<mask id="mask2_outline_ins">
<use xlink:href="#path3_fill" fill="white" transform="translate(-3973.63 1213.34)"/>
</mask>
<g mask="url(#mask2_outline_ins)">
<use xlink:href="#path4_stroke_2x" transform="translate(-3973.63 1213.34)" fill="#145275"/>
</g>
</g>
</g>
<g id="Group 4.2">
<g id="Vector">
<use xlink:href="#path2_stroke" transform="translate(-3949.6 1246.7)" fill="#145275"/>
</g>
<g id="Rectangle">
<mask id="mask3_outline_ins">
<use xlink:href="#path3_fill" fill="white" transform="translate(-3973.63 1237.32)"/>
</mask>
<g mask="url(#mask3_outline_ins)">
<use xlink:href="#path4_stroke_2x" transform="translate(-3973.63 1237.32)" fill="#145275"/>
</g>
</g>
</g>
</g>
</g>

</g>
</g>
<defs>
<path id="path0_fill" fill-rule="evenodd" d="M 8.47795 92.7835C 5.40959 89.2658 3.07585 85.0195 1.78215 80.2199C -2.78084 63.291 7.32512 45.89 24.3549 41.3538C 25.914 40.9385 27.4772 40.6454 29.0339 40.4687C 30.465 27.883 39.4499 16.8499 52.5016 13.3734C 61.4233 10.9969 70.4753 12.6229 77.7284 17.144C 81.7126 9.50421 88.7905 3.49188 97.811 1.08917C 114.234 -3.28522 131.098 5.9018 136.371 21.7447C 152.692 18.5765 168.924 28.4758 173.293 44.6845C 175.385 52.4489 174.393 60.3127 171.061 66.989C 178.122 71.0516 183.626 77.7883 185.904 86.2407C 190.24 102.328 181.33 118.841 165.82 124.336C 164.038 136.503 155.187 147.047 142.482 150.431C 137.094 151.866 131.659 151.842 126.601 150.601C 122.706 158.637 115.444 165.003 106.097 167.492C 95.2077 170.393 84.1244 167.331 76.3544 160.32C 73.7243 161.958 70.8073 163.24 67.6528 164.08C 52.1447 168.211 36.2428 160.248 30.0793 146.008C 16.7111 145.238 4.7509 136.093 1.09563 122.532C -1.84505 111.622 1.30681 100.516 8.47795 92.7835ZM 152.548 171.166C 150.1 162.026 140.709 156.602 131.574 159.051C 122.438 161.5 117.016 170.895 119.464 180.035C 121.912 189.175 131.302 194.599 140.438 192.15C 149.574 189.701 154.996 180.306 152.548 171.166ZM 164.356 177.639C 169.607 176.232 175.004 179.349 176.411 184.602C 177.818 189.855 174.702 195.254 169.451 196.662C 164.201 198.07 158.803 194.952 157.397 189.699C 155.99 184.446 159.106 179.047 164.356 177.639Z"/>
<path id="path1_stroke_2x" d="M 8.47795 92.7835L 12.144 96.1835L 15.2022 92.886L 12.2459 89.4968L 8.47795 92.7835ZM 1.78215 80.2199L -3.04556 81.5212L -3.04555 81.5212L 1.78215 80.2199ZM 24.3549 41.3538L 23.068 36.5223L 23.068 36.5223L 24.3549 41.3538ZM 29.0339 40.4687L 29.598 45.4368L 33.5522 44.9878L 34.0018 41.0336L 29.0339 40.4687ZM 52.5016 13.3734L 53.7886 18.2049L 53.7886 18.2049L 52.5016 13.3734ZM 77.7284 17.144L 75.0835 21.3872L 79.6653 24.2431L 82.1618 19.456L 77.7284 17.144ZM 97.811 1.08917L 99.0979 5.92072L 99.0979 5.92071L 97.811 1.08917ZM 136.371 21.7447L 131.627 23.3239L 133.014 27.4898L 137.324 26.6531L 136.371 21.7447ZM 173.293 44.6845L 178.12 43.3833L 178.12 43.3833L 173.293 44.6845ZM 171.061 66.989L 166.587 64.7564L 164.483 68.9727L 168.568 71.3227L 171.061 66.989ZM 185.904 86.2407L 190.732 84.9394L 190.732 84.9394L 185.904 86.2407ZM 165.82 124.336L 164.15 119.623L 161.309 120.63L 160.873 123.612L 165.82 124.336ZM 142.482 150.431L 141.195 145.599L 141.195 145.599L 142.482 150.431ZM 126.601 150.601L 127.791 145.745L 123.865 144.782L 122.101 148.42L 126.601 150.601ZM 106.097 167.492L 107.384 172.324L 107.384 172.324L 106.097 167.492ZM 76.3544 160.32L 79.704 156.608L 76.9078 154.084L 73.7108 156.076L 76.3544 160.32ZM 67.6528 164.08L 66.3659 159.248L 66.3658 159.248L 67.6528 164.08ZM 30.0793 146.008L 34.6679 144.022L 33.4437 141.193L 30.3667 141.016L 30.0793 146.008ZM 1.09563 122.532L 5.92334 121.231L 5.92333 121.231L 1.09563 122.532ZM 131.574 159.051L 132.868 163.881L 132.868 163.881L 131.574 159.051ZM 152.548 171.166L 157.378 169.872L 157.378 169.872L 152.548 171.166ZM 119.464 180.035L 124.294 178.741L 124.294 178.741L 119.464 180.035ZM 140.438 192.15L 141.733 196.979L 141.733 196.979L 140.438 192.15ZM 176.411 184.602L 181.241 183.308L 181.241 183.308L 176.411 184.602ZM 164.356 177.639L 165.651 182.469L 165.651 182.469L 164.356 177.639ZM 157.397 189.699L 162.226 188.406L 162.226 188.406L 157.397 189.699ZM 12.2459 89.4968C 9.50811 86.4019 7.71376 83.1514 6.60985 78.9186L -3.04555 81.5212C -1.56206 86.8876 1.31107 92.1297 4.70996 96.0702L 12.2459 89.4968ZM 6.60986 78.9187C 2.77334 64.6849 11.2626 50.0155 25.6419 46.1854L 23.068 36.5223C 3.38766 41.7644 -8.33501 61.897 -3.04556 81.5212L 6.60986 78.9187ZM 25.6419 46.1854C 27.0189 45.8149 28.2205 45.5899 29.598 45.4368L 28.4697 35.5006C 26.734 35.701 24.809 36.0622 23.068 36.5223L 25.6419 46.1854ZM 34.0018 41.0336C 35.2067 30.438 42.7767 21.1381 53.7886 18.2049L 51.2147 8.54182C 36.1231 12.5617 25.7233 25.328 24.0659 39.9038L 34.0018 41.0336ZM 53.7886 18.2049C 61.3216 16.1983 68.956 17.5677 75.0835 21.3872L 80.3733 12.9008C 71.9946 7.67807 61.5249 5.79547 51.2147 8.54182L 53.7886 18.2049ZM 82.1618 19.456C 85.5212 13.0142 91.4828 7.94908 99.0979 5.92072L 96.524 -3.74237C 86.0981 -0.965311 77.9039 5.99427 73.2951 14.832L 82.1618 19.456ZM 99.0979 5.92071C 112.972 2.22508 127.19 9.99433 131.627 23.3239L 141.115 20.1655C 135.005 1.80927 115.495 -8.79551 96.524 -3.74236L 99.0979 5.92071ZM 137.324 26.6531C 151.11 23.9769 164.789 32.3486 168.465 45.9858L 178.12 43.3833C 173.058 24.6029 154.273 13.1761 135.418 16.8363L 137.324 26.6531ZM 168.465 45.9857C 170.397 52.7929 169.608 58.8627 166.587 64.7564L 175.535 69.2215C 179.178 61.7626 180.374 52.1049 178.12 43.3833L 168.465 45.9857ZM 168.568 71.3227C 174.531 74.7541 179.159 80.427 181.077 87.542L 190.732 84.9394C 188.093 75.1496 181.713 67.3491 173.555 62.6552L 168.568 71.3227ZM 181.077 87.5419C 184.722 101.067 177.238 114.986 164.15 119.623L 167.489 129.049C 185.422 122.696 195.759 103.588 190.732 84.9394L 181.077 87.5419ZM 160.873 123.612C 159.372 133.857 151.914 142.744 141.195 145.599L 143.769 155.263C 158.459 151.35 168.704 139.148 170.767 125.061L 160.873 123.612ZM 141.195 145.599C 136.456 146.907 132.27 146.879 127.791 145.745L 125.41 155.457C 131.048 156.804 137.732 156.825 143.769 155.263L 141.195 145.599ZM 122.101 148.42C 118.817 155.197 112.7 160.559 104.81 162.661L 107.384 172.324C 118.188 169.446 126.595 162.077 131.1 152.782L 122.101 148.42ZM 104.81 162.661C 95.6196 165.109 86.2671 162.53 79.704 156.608L 73.0048 164.032C 81.9817 172.132 94.7958 175.677 107.384 172.324L 104.81 162.661ZM 73.7108 156.076C 71.3908 157.536 69.1533 158.521 66.3659 159.248L 68.9396 168.912C 72.4613 167.958 76.0578 166.38 78.998 164.564L 73.7108 156.076ZM 66.3658 159.248C 53.2683 162.737 39.8551 156.006 34.6679 144.022L 25.4906 147.994C 32.6306 164.49 51.0211 173.685 68.9397 168.912L 66.3658 159.248ZM 30.3667 141.016C 19.0681 140.366 8.99728 132.635 5.92334 121.231L -3.73208 123.833C 0.504523 139.551 14.3542 150.111 29.7919 151L 30.3667 141.016ZM 5.92333 121.231C 3.45065 112.057 6.09091 102.71 12.144 96.1835L 4.81189 89.3835C -3.47729 98.3213 -7.14074 111.187 -3.73208 123.833L 5.92333 121.231ZM 132.868 163.881C 139.335 162.147 145.984 165.986 147.718 172.46L 157.378 169.872C 154.215 158.067 142.084 151.057 130.279 154.222L 132.868 163.881ZM 124.294 178.741C 122.56 172.267 126.401 165.614 132.868 163.881L 130.279 154.222C 118.475 157.386 111.472 169.523 114.634 181.328L 124.294 178.741ZM 139.144 187.32C 132.677 189.054 126.028 185.215 124.294 178.741L 114.634 181.328C 117.796 193.134 129.928 200.144 141.733 196.979L 139.144 187.32ZM 147.718 172.46C 149.452 178.934 145.611 185.586 139.144 187.32L 141.733 196.979C 153.537 193.815 160.539 181.678 157.378 169.872L 147.718 172.46ZM 181.241 183.308C 179.12 175.389 170.982 170.687 163.062 172.81L 165.651 182.469C 168.232 181.777 170.888 183.309 171.581 185.896L 181.241 183.308ZM 170.746 201.492C 178.665 199.369 183.362 191.227 181.241 183.308L 171.581 185.896C 172.274 188.483 170.739 191.14 168.157 191.833L 170.746 201.492ZM 152.567 190.993C 154.688 198.912 162.826 203.615 170.746 201.492L 168.157 191.833C 165.575 192.525 162.919 190.993 162.226 188.406L 152.567 190.993ZM 163.062 172.81C 155.142 174.933 150.446 183.075 152.567 190.993L 162.226 188.406C 161.533 185.818 163.069 183.161 165.651 182.469L 163.062 172.81Z"/>
<path id="path2_stroke" d="M 0 2.5L 52.2346 2.5L 52.2346 -2.5L 0 -2.5L 0 2.5Z"/>
<path id="path3_fill" d="M 0 0L 18.6824 0L 18.6824 18.6522L 0 18.6522L 0 0Z"/>
<path id="path4_stroke_2x" d="M 0 0L 0 -5L -5 -5L -5 0L 0 0ZM 18.6824 0L 23.6824 0L 23.6824 -5L 18.6824 -5L 18.6824 0ZM 18.6824 18.6522L 18.6824 23.6522L 23.6824 23.6522L 23.6824 18.6522L 18.6824 18.6522ZM 0 18.6522L -5 18.6522L -5 23.6522L 0 23.6522L 0 18.6522ZM 0 5L 18.6824 5L 18.6824 -5L 0 -5L 0 5ZM 13.6824 0L 13.6824 18.6522L 23.6824 18.6522L 23.6824 0L 13.6824 0ZM 18.6824 13.6522L 0 13.6522L 0 23.6522L 18.6824 23.6522L 18.6824 13.6522ZM 5 18.6522L 5 0L -5 0L -5 18.6522L 5 18.6522Z"/>
</defs>
</svg>
